<svg xmlns="http://www.w3.org/2000/svg" width="36" height="36" viewBox="0 0 36 36" fill="none"><path d="M8.28 3.96L5.94 7.08C5.47652 7.69797 5.24479 8.00695 5.25016 8.26559C5.25484 8.49066 5.36038 8.70173 5.53763 8.84051C5.74131 9 6.12754 9 6.9 9H29.1C29.8725 9 30.2587 9 30.4624 8.84051C30.6396 8.70173 30.7452 8.49066 30.7498 8.26559C30.7552 8.00695 30.5235 7.69797 30.06 7.08L27.72 3.96M8.28 3.96C8.544 3.608 8.676 3.432 8.84329 3.30506C8.99145 3.19264 9.15924 3.10874 9.33808 3.05767C9.54 3 9.76 3 10.2 3H25.8C26.24 3 26.46 3 26.6619 3.05767C26.8408 3.10874 27.0085 3.19264 27.1567 3.30506C27.324 3.432 27.456 3.608 27.72 3.96M8.28 3.96L5.46 7.72C5.10381 8.19492 4.92571 8.43238 4.79925 8.69388C4.68703 8.92593 4.60518 9.17147 4.55573 9.42444C4.5 9.70952 4.5 10.0063 4.5 10.6L4.5 28.2C4.5 29.8802 4.5 30.7202 4.82698 31.362C5.1146 31.9265 5.57354 32.3854 6.13803 32.673C6.77976 33 7.61984 33 9.3 33L26.7 33C28.3802 33 29.2202 33 29.862 32.673C30.4265 32.3854 30.8854 31.9265 31.173 31.362C31.5 30.7202 31.5 29.8802 31.5 28.2V10.6C31.5 10.0063 31.5 9.70952 31.4443 9.42444C31.3948 9.17147 31.313 8.92593 31.2008 8.69389C31.0743 8.43238 30.8962 8.19492 30.54 7.72L27.72 3.96M24 15C24 16.5913 23.3679 18.1174 22.2426 19.2426C21.1174 20.3679 19.5913 21 18 21C16.4087 21 14.8826 20.3679 13.7574 19.2426C12.6321 18.1174 12 16.5913 12 15" stroke="url(#paint0_linear_280_579)" stroke-width="2" stroke-linecap="round" stroke-linejoin="round"/><defs><linearGradient id="paint0_linear_280_579" x1="18" y1="3" x2="18" y2="33" gradientUnits="userSpaceOnUse"><stop stop-color="#EEE73F" /><stop offset="1" stop-color="#E08644" /></linearGradient></defs></svg>